<?xml version="1.0" encoding="UTF-8"?>
<svg id="Livello_2" data-name="Livello 2" xmlns="http://www.w3.org/2000/svg" viewBox="0 0 728 348.13">
  <defs>
    <style>
      .cls-1 {
        fill: #104a96;
      }
    </style>
  </defs>
  <g id="Livello_1-2" data-name="Livello 1">
    <path class="cls-1" d="M644.46,0h-55.84l-8.93,25.12-46.01,129.67c-1.28-8.97-4.08-16.95-8.45-23.83-6.17-9.54-15.24-16.52-27.3-20.94,7.93-4.08,13.91-8.59,17.99-13.53,7.31-8.78,10.97-20.46,10.97-34.94s-3.61-26.11-10.83-36.23C504.06,8.88,483.65.43,454.83,0h-114.09v185.22l-44.77-127.29-19.18-54.36-1.23-3.56h-55.84l-54.36,153.22-14.77,41.54H50.34V0H1.01v237.45h186.03l16-48.81h86.98l15.57,48.81h141.54c11.97,0,23.12-1.09,33.38-3.23,10.26-2.14,19.13-6.13,26.68-11.92,1.23-.95,2.42-1.99,3.56-2.99l-6.46,18.14h51.66l16-48.81h86.94l15.57,48.81h53.51L644.46,0ZM215.29,147.71l12.77-38.98,17.85-54.41,9.12,28.58,9.97,31.19,10.73,33.62h-60.44ZM386.64,41.26h51.33c11.35,0,20.65,1.23,27.92,3.7,8.45,3.51,12.68,10.82,12.68,21.89,0,10.02-3.18,16.95-9.59,20.89-6.36,3.89-14.72,5.84-24.97,5.84h-57.36v-52.32ZM467.88,192.01c-5.7,2.8-13.67,4.18-23.93,4.18h-57.31v-63.29h58.12c10.11.1,17.99,1.47,23.6,4.04,10.02,4.61,15.05,13.1,15.05,25.45,0,14.58-5.18,24.45-15.53,29.63ZM584.16,147.71l3.42-10.4v-.05l9.26-28.2.33-1,14.34-43.78,3.28-9.97.19.52,29.67,92.87h-60.49Z"/>
    <g>
      <path class="cls-1" d="M0,346.94l31.59-69.44h16.25l31.9,69.44h-17.27l-26.11-61.31h6.6l-26.11,61.31H0ZM15.95,332.06l4.16-12.2h36.77l4.27,12.2H15.95Z"/>
      <path class="cls-1" d="M148.1,346.94v-69.44h16.56v56.35h35.45v13.1h-52.01Z"/>
      <path class="cls-1" d="M301.07,348.13c-10.09,0-17.98-2.74-23.67-8.23-5.69-5.49-8.53-13.36-8.53-23.61v-38.79h16.56v38.39c0,6.55,1.39,11.29,4.16,14.24,2.78,2.94,6.64,4.41,11.58,4.41s8.9-1.47,11.68-4.41c2.78-2.94,4.16-7.69,4.16-14.24v-38.39h16.15v38.79c0,10.25-2.84,18.12-8.53,23.61-5.69,5.49-13.54,8.23-23.57,8.23Z"/>
      <path class="cls-1" d="M410.47,346.94v-69.44h13.61l30.27,49.01h-7.21l29.66-49.01h13.71v69.44h-15.34l-.2-46.33h3.05l-23.97,38.89h-7.31l-24.28-38.89h3.35v46.33h-15.34Z"/>
      <path class="cls-1" d="M568.42,346.94v-69.44h13.61l41.95,50h-6.6v-50h16.25v69.44h-13.61l-41.95-50h6.6v50h-16.25Z"/>
      <path class="cls-1" d="M711.44,346.94v-69.44h16.56v69.44h-16.56Z"/>
    </g>
  </g>
</svg>